<svg xmlns="http://www.w3.org/2000/svg" width="920" height="552" viewBox="0 0 920 552" version="1.1"><path d="M 435.520 1.047 C 387.036 4.632, 346.153 18.977, 313.500 43.861 C 296.749 56.627, 274.861 81.508, 263.456 100.748 C 256.483 112.512, 247.625 131.125, 242.635 144.500 C 237.646 157.873, 230.787 179.879, 231.220 181.124 C 231.374 181.567, 234.055 178.683, 237.178 174.715 C 243.624 166.523, 261.776 148.285, 270 141.738 C 289.174 126.473, 311.987 115.827, 334 111.870 C 338.216 111.112, 347.849 110.555, 356 110.598 C 391.168 110.783, 417.732 121.115, 446 145.604 C 449.575 148.702, 464.650 163.242, 479.500 177.917 C 517.397 215.367, 531.026 226.858, 554.135 240.848 C 584.029 258.945, 613.479 268.665, 655 274.138 C 667.345 275.766, 711.475 275.774, 724.500 274.152 C 762.261 269.448, 788.407 261.342, 815.195 246.034 C 830.227 237.444, 840.403 229.594, 854.122 216.003 C 876.726 193.612, 892.237 169.513, 905.329 136.442 C 910.658 122.982, 919.576 95.242, 918.818 94.484 C 918.618 94.285, 915.665 97.594, 912.256 101.837 C 903.201 113.104, 886.728 129.114, 875.738 137.330 C 848.807 157.460, 817.857 167.480, 788.500 165.573 C 755.362 163.421, 732.190 154.088, 706.500 132.548 C 702.100 128.859, 686.125 113.605, 671 98.650 C 655.875 83.695, 640.125 68.510, 636 64.905 C 593.942 28.147, 552.240 9.174, 498.859 2.510 C 484.171 0.676, 450.917 -0.092, 435.520 1.047 M 210.500 276.682 C 166.533 279.895, 135.270 288.556, 104.805 305.966 C 89.777 314.554, 79.598 322.411, 65.896 336 C 43.209 358.500, 27.762 382.492, 14.671 415.558 C 9.210 429.352, 0.431 456.764, 1.221 457.555 C 1.442 457.775, 3.395 455.610, 5.561 452.742 C 11.874 444.386, 31.806 424.282, 40.500 417.501 C 60.656 401.782, 81.991 391.826, 104 387.870 C 114.330 386.013, 138.143 386.300, 150 388.423 C 172.474 392.448, 191.169 401.312, 211 417.346 C 215.125 420.681, 231.550 436.258, 247.500 451.963 C 263.450 467.667, 279.875 483.472, 284 487.083 C 326.004 523.860, 367.873 542.892, 421.500 549.583 C 438.461 551.700, 478.051 552.008, 494.500 550.151 C 537.641 545.281, 574.280 531.835, 604.081 509.936 C 614.760 502.088, 636.687 480.014, 644.505 469.239 C 661.910 445.255, 675.165 417.529, 685.451 383.591 C 687.437 377.042, 688.935 371.320, 688.780 370.876 C 688.626 370.433, 685.942 373.317, 682.816 377.285 C 671.438 391.730, 653.029 408.899, 638.205 418.892 C 623.785 428.613, 602.793 437.142, 586 440.105 C 581.875 440.833, 571.975 441.416, 564 441.400 C 529.104 441.333, 502.340 430.926, 474 406.402 C 470.425 403.308, 455.350 388.761, 440.500 374.075 C 425.650 359.388, 409.450 343.861, 404.500 339.570 C 359.613 300.660, 313.705 281.541, 254.500 277.098 C 243.952 276.307, 218.878 276.070, 210.500 276.682" stroke="none" fill="#04b4d4" fill-rule="evenodd"/></svg>